<svg id="圖層_1" data-name="圖層 1" xmlns="http://www.w3.org/2000/svg" xmlns:xlink="http://www.w3.org/1999/xlink" viewBox="0 0 576.75 465.36"><defs><style>.cls-1{fill:#f6f6f6;}.cls-2{fill:#878787;}.cls-3{fill:#4e5566;}.cls-4{fill:#ad8b7c;}.cls-5{fill:#996e5c;}.cls-6{opacity:0.4;}.cls-7{fill:url(#linear-gradient);}.cls-8{fill:url(#linear-gradient-2);}.cls-9{fill:#b2b2b2;}.cls-10{fill:#9d9d9c;}.cls-11{fill:#3c3c3b;}.cls-12{fill:#dadada;}.cls-13{fill:#7c89ad;}.cls-14{fill:#eb8f8f;}.cls-15{fill:#31b49e;}.cls-16{fill:#e9c74c;}.cls-17{fill:#fce576;}.cls-18{fill:#fbdf4e;}.cls-19{fill:#fdea98;}.cls-20{fill:#eb5e69;}.cls-21{opacity:0.54;}.cls-22{fill:#688786;}.cls-23{fill:#3579a4;}.cls-24{fill:#026e9b;}.cls-25{fill:#575756;}.cls-26{fill:#f7b9b2;}.cls-27{fill:#f5aba4;}.cls-28{fill:#281123;}.cls-29{fill:#59b49d;}.cls-30{fill:#81c1ae;}.cls-31{fill:#4a4a49;}.cls-32{fill:#1d1d1b;}.cls-33{fill:#d1d3d4;}.cls-34{fill:#00a79d;}.cls-35{fill:#58595b;}.cls-36{fill:#53c0a5;}.cls-37{fill:#4a4b4c;}.cls-38{fill:#fbfbfb;}.cls-39{fill:#d6d6d6;}.cls-40{fill:#262436;}.cls-41{fill:#ef1255;}.cls-42{fill:#c7063a;}.cls-43{fill:url(#Degradado_sin_nombre_4);}.cls-44{fill:#13131e;}</style><linearGradient id="linear-gradient" x1="476.74" y1="377.89" x2="476.74" y2="175.25" gradientTransform="matrix(-1, 0, 0, 1, 974.64, 0)" gradientUnits="userSpaceOnUse"><stop offset="0.11" stop-color="#fff" stop-opacity="0.7"/><stop offset="0.34" stop-color="#fff" stop-opacity="0.48"/><stop offset="0.82" stop-color="#fff" stop-opacity="0"/></linearGradient><linearGradient id="linear-gradient-2" x1="476.92" y1="386.27" x2="476.92" y2="175.17" gradientTransform="matrix(-1, 0, 0, 1, 974.64, 0)" gradientUnits="userSpaceOnUse"><stop offset="0.13" stop-color="#fff" stop-opacity="0.5"/><stop offset="1" stop-color="#fff" stop-opacity="0"/></linearGradient><linearGradient id="Degradado_sin_nombre_4" x1="-11.25" y1="207.76" x2="183.12" y2="325.45" gradientTransform="matrix(1, -0.06, 0.06, 1, -7.3, -190.48)" gradientUnits="userSpaceOnUse"><stop offset="0" stop-color="#fff"/><stop offset="0.22" stop-color="#fff" stop-opacity="0.76"/><stop offset="0.6" stop-color="#fff" stop-opacity="0.36"/><stop offset="0.87" stop-color="#fff" stop-opacity="0.1"/><stop offset="1" stop-color="#fff" stop-opacity="0"/></linearGradient></defs><title>bg-1-headphone-no-shelf</title><path class="cls-1" d="M168.76,396.41a3.34,3.34,0,0,1,3.33-3.33h160a3.34,3.34,0,0,1,3.33,3.33Z" transform="translate(-3.21 -183.64)"/><path class="cls-2" d="M184.14,393.08V392a1.1,1.1,0,0,0-1.1-1.1H176.9a1.1,1.1,0,0,0-1.1,1.1v1.05Z" transform="translate(-3.21 -183.64)"/><path class="cls-2" d="M194.67,393.08V392a1.1,1.1,0,0,0-1.1-1.1h-6.15a1.1,1.1,0,0,0-1.1,1.1v1.05Z" transform="translate(-3.21 -183.64)"/><path class="cls-2" d="M205.19,393.08V392a1.1,1.1,0,0,0-1.1-1.1H198a1.1,1.1,0,0,0-1.1,1.1v1.05Z" transform="translate(-3.21 -183.64)"/><path class="cls-2" d="M215.72,393.08V392a1.1,1.1,0,0,0-1.1-1.1h-6.14a1.1,1.1,0,0,0-1.1,1.1v1.05Z" transform="translate(-3.21 -183.64)"/><path class="cls-2" d="M273.78,393.08V392a1.1,1.1,0,0,0-1.1-1.1H219a1.1,1.1,0,0,0-1.1,1.1v1.05Z" transform="translate(-3.21 -183.64)"/><path class="cls-2" d="M284.31,393.08V392a1.1,1.1,0,0,0-1.1-1.1h-6.15A1.1,1.1,0,0,0,276,392v1.05Z" transform="translate(-3.21 -183.64)"/><path class="cls-2" d="M294.83,393.08V392a1.1,1.1,0,0,0-1.1-1.1h-6.14a1.1,1.1,0,0,0-1.1,1.1v1.05Z" transform="translate(-3.21 -183.64)"/><path class="cls-2" d="M305,393.08V392a1.1,1.1,0,0,0-1.1-1.1h-6.14a1.1,1.1,0,0,0-1.1,1.1v1.05Z" transform="translate(-3.21 -183.64)"/><path class="cls-2" d="M326.46,393.08V392a1.1,1.1,0,0,0-1.1-1.1h-6.14a1.1,1.1,0,0,0-1.1,1.1v1.05Z" transform="translate(-3.21 -183.64)"/><path class="cls-2" d="M315.52,393.08V392a1.1,1.1,0,0,0-1.1-1.1h-6.15a1.1,1.1,0,0,0-1.1,1.1v1.05Z" transform="translate(-3.21 -183.64)"/><polygon class="cls-3" points="1.48 464.86 93.21 395.01 483.54 395.01 575.27 464.86 1.48 464.86"/><path d="M486.58,579.15,577,648H6.18l90.41-68.85h390m.34-1H96.25L3.21,649H580l-93-70.85Z" transform="translate(-3.21 -183.64)"/><rect class="cls-4" x="52.81" y="212.77" width="478.47" height="18.91"/><path class="cls-4" d="M73.36,231.82H89.47a0,0,0,0,1,0,0V440.72a2,2,0,0,1-2,2H75.31a2,2,0,0,1-2-2V231.82A0,0,0,0,1,73.36,231.82Z"/><path class="cls-4" d="M494.62,231.82h16.11a0,0,0,0,1,0,0V440.72a2,2,0,0,1-2,2H496.57a2,2,0,0,1-2-2V231.82A0,0,0,0,1,494.62,231.82Z"/><rect class="cls-5" x="73.36" y="231.82" width="16.11" height="13.41"/><rect class="cls-5" x="494.62" y="231.82" width="16.11" height="13.41"/><path class="cls-5" d="M104.15,231.68H118a0,0,0,0,1,0,0V410.9a2,2,0,0,1-2,2H106.1a2,2,0,0,1-2-2V231.68A0,0,0,0,1,104.15,231.68Z"/><path class="cls-5" d="M466.09,231.68h13.84a0,0,0,0,1,0,0V410.9a2,2,0,0,1-2,2H468a2,2,0,0,1-2-2V231.68A0,0,0,0,1,466.09,231.68Z"/><path class="cls-1" d="M466.75,172.37h25.14a6.23,6.23,0,0,1,6.23,6.23v34.17a0,0,0,0,1,0,0h-37.6a0,0,0,0,1,0,0V178.6A6.23,6.23,0,0,1,466.75,172.37Z"/><path class="cls-1" d="M506.5,385.88h-5.23v-2.8h5.23a2.59,2.59,0,0,0,2.59-2.59v-9.42a3.73,3.73,0,0,0-3.73-3.73h-4.09v-2.81h4.09a6.56,6.56,0,0,1,6.54,6.54v9.42A5.39,5.39,0,0,1,506.5,385.88Z" transform="translate(-3.21 -183.64)"/><g class="cls-6"><path class="cls-7" d="M485,271c20.95-2.73-.66-13.46-1.86-20.75S457.26,204.77,460,199s31.95,30.31,45,13c3.89-5.16,10.11-16.08,9-19l35.75-9.36c-3.61,2.7-6.79,6.48-7.71,11.65-2.43,13.67,2,42.55-15.19,50.11-5.06,2.22-5.14,7.69-5.14,12.52,0,10.88.65,26.62-9.71,27.08-25.59,1.14-31.36,9-35,16s-29.09,18.18-2.37,38.83c8.3,6.42,12.65,11.82,14.7,16.18H479a27.1,27.1,0,0,0-3.23-9.7C469.06,335.18,448,331,446.08,314.63,444.9,304.61,464.05,273.73,485,271Z" transform="translate(-3.21 -183.64)"/><path class="cls-8" d="M480,272c21-2.73,7.38-19.92,6.17-27.21s-8.81-36.14-6.07-41.91S495,226,508,208.65c7.2-9.54,2.86-18.7-2.48-25h37c-9.78,6.49-4.34,27.63-27.85,18.33-12.9-5.1,16.67,41.19-1.54,47s-5.48,11.27-3.17,22c3.2,14.93-20.05,6.7-34,20-10.29,9.81-18.31,24.6-2.28,40.63,6.74,6.74.69,11.24,2.28,14.37.38.75,2.4-2.2,2.75-1.46C471.52,335.48,454.22,323,453,313S459.05,274.73,480,272Z" transform="translate(-3.21 -183.64)"/></g><rect class="cls-9" x="258.18" y="176.99" width="51.45" height="35.79"/><rect class="cls-2" x="258.18" y="176.99" width="51.45" height="8.95"/><path class="cls-10" d="M322.64,398.66a2.45,2.45,0,0,0-2.42-2.24H254a2.45,2.45,0,0,0-2.42,2.24Z" transform="translate(-3.21 -183.64)"/><rect class="cls-11" x="163.26" y="15.33" width="243.98" height="161.66" rx="13.92" ry="13.92"/><path class="cls-9" d="M166.47,334.68v15.51a10.44,10.44,0,0,0,10.44,10.44H400a10.45,10.45,0,0,0,10.44-10.44V334.68Z" transform="translate(-3.21 -183.64)"/><rect x="171.16" y="25.32" width="228.17" height="119.68" rx="6.27" ry="6.27"/><circle class="cls-12" cx="285.25" cy="164.01" r="5.59"/><rect class="cls-13" x="187.43" y="58.82" width="95.96" height="3.75" rx="1.76" ry="1.76"/><rect class="cls-13" x="288.64" y="58.82" width="37.49" height="3.75" rx="1.76" ry="1.76"/><rect class="cls-13" x="187.43" y="68.57" width="24.74" height="3.75" rx="1.76" ry="1.76"/><rect class="cls-13" x="215.17" y="68.57" width="24.74" height="3.75" rx="1.76" ry="1.76"/><rect class="cls-13" x="242.91" y="68.57" width="24.74" height="3.75" rx="1.76" ry="1.76"/><rect class="cls-13" x="271.4" y="68.57" width="54.73" height="3.75" rx="1.76" ry="1.76"/><rect class="cls-14" x="333.62" y="58.82" width="17.99" height="3.75" rx="1.76" ry="1.76"/><rect class="cls-14" x="353.86" y="58.82" width="20.24" height="3.75" rx="1.76" ry="1.76"/><rect class="cls-14" x="375.61" y="58.82" width="14.99" height="3.75" rx="1.76" ry="1.76"/><rect class="cls-14" x="331.37" y="68.57" width="16.49" height="3.75" rx="1.76" ry="1.76"/><rect class="cls-14" x="350.12" y="68.57" width="12.75" height="3.75" rx="1.76" ry="1.76"/><rect class="cls-14" x="365.11" y="68.57" width="12.75" height="3.75" rx="1.76" ry="1.76"/><rect class="cls-15" x="187.43" y="77.56" width="12" height="3" rx="1.41" ry="1.41"/><rect class="cls-15" x="187.43" y="85.81" width="12" height="3" rx="1.41" ry="1.41"/><rect class="cls-15" x="187.43" y="94.06" width="12" height="3" rx="1.41" ry="1.41"/><rect class="cls-15" x="187.43" y="102.31" width="12" height="3" rx="1.41" ry="1.41"/><rect class="cls-15" x="187.43" y="110.55" width="12" height="3" rx="1.41" ry="1.41"/><rect class="cls-13" x="209.92" y="76.81" width="95.96" height="3.75" rx="1.76" ry="1.76"/><rect class="cls-13" x="314.13" y="76.81" width="78.72" height="3.75" rx="1.76" ry="1.76"/><rect class="cls-13" x="209.92" y="85.06" width="52.48" height="3.75" rx="1.76" ry="1.76"/><rect class="cls-13" x="209.92" y="93.31" width="52.48" height="3.75" rx="1.76" ry="1.76"/><rect class="cls-13" x="209.92" y="101.56" width="52.48" height="3.75" rx="1.76" ry="1.76"/><rect class="cls-13" x="209.92" y="109.8" width="52.48" height="3.75" rx="1.76" ry="1.76"/><rect class="cls-13" x="209.92" y="118.05" width="52.48" height="3.75" rx="1.76" ry="1.76"/><rect class="cls-13" x="209.92" y="126.3" width="52.48" height="3.75" rx="1.76" ry="1.76"/><rect class="cls-14" x="338.12" y="109.8" width="44.23" height="3.75" rx="1.76" ry="1.76"/><rect class="cls-14" x="329.87" y="118.05" width="52.48" height="3.75" rx="1.76" ry="1.76"/><rect class="cls-14" x="312.63" y="126.3" width="70.47" height="3.75" rx="1.76" ry="1.76"/><rect class="cls-16" x="191.76" y="222.96" width="13.2" height="3.28" rx="1.54" ry="1.54" transform="translate(-104.43 47.72) rotate(-49.84)"/><rect class="cls-16" x="191.76" y="230.94" width="13.2" height="3.28" rx="1.54" ry="1.54" transform="translate(244.99 -252.65) rotate(49.84)"/><rect class="cls-16" x="219.05" y="222.96" width="13.2" height="3.28" rx="1.54" ry="1.54" transform="matrix(-0.64, -0.76, 0.76, -0.64, 196.3, 358.27)"/><rect class="cls-16" x="219.05" y="230.94" width="13.2" height="3.28" rx="1.54" ry="1.54" transform="translate(545.72 26.47) rotate(130.16)"/><rect class="cls-16" x="232.62" y="234.96" width="3" height="3" rx="1.41" ry="1.41" transform="translate(465.03 289.29) rotate(180)"/><rect class="cls-16" x="237.87" y="234.96" width="3" height="3" rx="1.41" ry="1.41" transform="translate(475.53 289.29) rotate(180)"/><rect class="cls-16" x="243.12" y="234.96" width="3" height="3" rx="1.41" ry="1.41" transform="translate(486.03 289.29) rotate(180)"/><rect class="cls-16" x="201.59" y="227.4" width="20.48" height="2.62" rx="1.23" ry="1.23" transform="translate(-78.67 166.09) rotate(-70.04)"/><path class="cls-17" d="M390.23,383.59c-8.54.06-18.27.11-27.25-1-1.49-10.59-.46-30.68-.46-30.68v-5.3h38.61v5.3s-1.31,19.76.73,24.67C401.94,376.89,392.49,383.23,390.23,383.59Z" transform="translate(-3.21 -183.64)"/><path class="cls-18" d="M394.33,376.83a14,14,0,0,1-4.1,6.76c2.26-.36,11.71-6.7,11.63-7C400,377.63,396,376.6,394.33,376.83Z" transform="translate(-3.21 -183.64)"/><path class="cls-19" d="M395.63,376.08c.19,2.05-3.65,6.19-5.4,7.51,2.26-.36,11.71-6.7,11.63-7A27.91,27.91,0,0,0,395.63,376.08Z" transform="translate(-3.21 -183.64)"/><rect class="cls-19" x="359.31" y="162.95" width="38.61" height="5.3"/><path class="cls-20" d="M374.61,371.75l-.82.07-.12-4.57a.35.35,0,0,1,.3-.12h.37a.37.37,0,0,0,.28-.15.45.45,0,0,0,.1-.31.39.39,0,0,0-.14-.3.43.43,0,0,0-.3-.11,1.77,1.77,0,0,0-.48.09l-.21.06c0-.18,0-.45,0-.83s0-.67,0-.87l-.18-2.44H374c.45,0,.67-.16.66-.46a.38.38,0,0,0-.24-.34.77.77,0,0,0-.45-.12l-1.1.15a2.76,2.76,0,0,0-.35.53v.05a3.47,3.47,0,0,0,.12.76,5.51,5.51,0,0,1,.12.75l.21,8.61a.54.54,0,0,0,.06.27c.09.14.32.21.69.2l.46,0,.49,0a1.33,1.33,0,0,0,.43-.14.69.69,0,0,0,.34-.31v-.06C375.46,371.86,375.17,371.74,374.61,371.75Z" transform="translate(-3.21 -183.64)"/><path class="cls-20" d="M378.38,367.42l-2.22.05a.33.33,0,0,0-.24.1.32.32,0,0,0-.09.24c0,.22.21.32.61.31h3.12a.36.36,0,0,0,.25-.1.35.35,0,0,0,.09-.25C379.9,367.51,379.39,367.39,378.38,367.42Z" transform="translate(-3.21 -183.64)"/><path class="cls-20" d="M379,365.79l-2.88.29a.38.38,0,0,0-.24.1.36.36,0,0,0-.08.24c0,.29.31.42.9.41l.56,0h.07c.26,0,.83-.2,1.28-.21,1,0,1.55-.17,1.55-.43S379.77,365.77,379,365.79Z" transform="translate(-3.21 -183.64)"/><path class="cls-20" d="M385.54,361.18a.4.4,0,0,0-.11-.26.38.38,0,0,0-.28-.11.55.55,0,0,0-.31.12.44.44,0,0,0-.17.31v.09a27.49,27.49,0,0,1-.41,3.55c-.09.46-.21,1.1-.37,1.92s-.27,1.4-.33,1.72c0-.09-.14-.64-.36-1.64s-.48-2.14-.82-3.4c-.41-1.55-.77-2.32-1.06-2.34l-.41.25c0,.63,0,1.27,0,1.91l.19,5.74v2.4a1.24,1.24,0,0,0,.15.66.52.52,0,0,0,.52.24.74.74,0,0,0,.21-.56l-.27-6.09c0-.4,0-1,0-1.79.07.29.23.84.47,1.65a15.89,15.89,0,0,1,.76,3.81c0,.92.21,1.38.56,1.37a.47.47,0,0,0,.45-.36,2.54,2.54,0,0,0,.09-.31,2.84,2.84,0,0,0,0-.36c0-.15,0-.24,0-.28v-.09a21.14,21.14,0,0,1,.4-2.2c.21-1,.35-1.63.4-2l0,.75.21,6.23c0,.39.14.59.38.58s.23-.09.36-.27a1.07,1.07,0,0,0,.17-.62q0-1.77-.27-5.31C385.66,364.13,385.57,362.36,385.54,361.18Z" transform="translate(-3.21 -183.64)"/><path class="cls-20" d="M390,371.24a1.14,1.14,0,0,1-.62.28,1.07,1.07,0,0,1-1-.53,3.58,3.58,0,0,1-.54-1.32c-.06-.29-.12-.63-.18-1a21.61,21.61,0,0,1-.13-2.27V366l.11-1-.07-1a3.49,3.49,0,0,1,.25-1.7,1.23,1.23,0,0,1,1.16-.57l.2,0h0a.43.43,0,0,0,.41.17.79.79,0,0,0,.41-.1.29.29,0,0,0,.12-.25.59.59,0,0,0-.36-.51,1.39,1.39,0,0,0-.7-.19,2.63,2.63,0,0,0-1.66.58,1.76,1.76,0,0,0-.65,1.47,3.87,3.87,0,0,0,.06.46,7.7,7.7,0,0,0-.07,1.37l0,1.78q0,1.26.15,2.34c.05.42.11.8.17,1.12a9,9,0,0,0,.3,1,3.3,3.3,0,0,0,.43.8,2,2,0,0,0,.59.5,1.83,1.83,0,0,0,.84.18,2.68,2.68,0,0,0,.91-.18,1.1,1.1,0,0,0,.82-1.08.62.62,0,0,0-.42-.22A1.31,1.31,0,0,0,390,371.24Z" transform="translate(-3.21 -183.64)"/><path class="cls-20" d="M394.6,363l-.07,0h-.08l-.53.1c0-.16.32-1.35.38-1.66a7.44,7.44,0,0,0,.15-1.12,5.49,5.49,0,0,0,0-1.08c0-.26-.07-.46-.1-.6a2.08,2.08,0,0,0-.06-.24,1.53,1.53,0,0,0-.09-.24,1.06,1.06,0,0,0-.26-.39.83.83,0,0,0-.67-.25h-.16l-.21,0v.05a.63.63,0,0,0-.21.19,1.08,1.08,0,0,0-.17.82.44.44,0,0,0,.48.42h0c.12,0,.39-.11.4-.55a2.44,2.44,0,0,1,.13.55,6.68,6.68,0,0,1,0,1.72,11.76,11.76,0,0,1-.4,1.83c0,.07-.05.22-.1.46a1.24,1.24,0,0,1-.17.45l0,.11v.09a.45.45,0,0,0,.24.34.59.59,0,0,0,.29.07h.08l1.24-.25,0-.06a.45.45,0,0,0,.14-.39A.51.51,0,0,0,394.6,363Z" transform="translate(-3.21 -183.64)"/><g class="cls-21"><ellipse class="cls-22" cx="283.28" cy="436.24" rx="146.59" ry="24.28"/></g><path class="cls-23" d="M236.15,455.49S213,460.39,210,467.4s-2.56,25.22.94,35,28.72,71,29.19,76.59c0,0,7,1.41,8.64,1.64,0,0-23.12,10.27-24,19.38s46,6.54,52.07-4.44c0,0-3.74-11.44-6.54-14.94,0,0,2.1-3.27,1.64-4.67S259,536.52,257.4,528.34s-8.64-25-4.44-28.49,33.16-4.2,33.16-4.2h1s28.95.7,33.16,4.2-2.81,20.32-4.44,28.49-14,46.24-14.48,47.64,1.64,4.67,1.64,4.67c-2.81,3.5-6.54,14.94-6.54,14.94,6.07,11,53,13.55,52.07,4.44s-24.05-19.38-24.05-19.38c1.63-.23,8.64-1.64,8.64-1.64.47-5.6,25.68-66.78,29.19-76.59s4-28,.93-35-26.15-11.91-26.15-11.91-10.8,9.71-48.63,9.71S236.15,455.49,236.15,455.49Z" transform="translate(-3.21 -183.64)"/><path class="cls-24" d="M363.28,467.4c-3-7-26.15-11.91-26.15-11.91s-10.8,9.71-48.63,9.71-52.35-9.71-52.35-9.71S213,460.39,210,467.4s-2.56,25.22.94,35c1.78,5,9.15,23.21,16,40.68,9.83-4.82,21.79-6.88,32-8.42-.78-2.74-1.36-5-1.63-6.34-1.64-8.17-8.64-25-4.44-28.49s33.16-4.2,33.16-4.2h1s28.95.7,33.16,4.2-2.81,20.32-4.44,28.49c-.35,1.75-1.19,4.87-2.3,8.69.53.15,1.09.26,1.62.41a236.65,236.65,0,0,1,29.2,10.49c7.38-18.81,16-40.07,18-45.51C365.85,492.62,366.32,474.4,363.28,467.4Z" transform="translate(-3.21 -183.64)"/><path class="cls-25" d="M248.76,580.65s-23.12,10.27-24,19.38,46,6.54,52.07-4.44c0,0-3.74-11.44-6.54-14.94C270.24,580.65,267.72,583.57,248.76,580.65Z" transform="translate(-3.21 -183.64)"/><path class="cls-25" d="M324.52,580.65c-17.57,2.57-21.48,0-21.48,0-2.81,3.5-6.54,14.94-6.54,14.94,6.07,11,53,13.55,52.07,4.44S324.52,580.65,324.52,580.65Z" transform="translate(-3.21 -183.64)"/><path class="cls-26" d="M301.28,303.76h0c-.52-2.62-.46-12.2-.46-12.2,8.4-6.19,11.32-20.78,11.32-20.78s4-5.14,4.21-8.41a4.46,4.46,0,0,0-2.11-4.43c.64-19.27-5.95-30.77-13.9-34.38-3.42-1.55-9.95-2.29-13.7-2.29s-10.28.74-13.7,2.29c-8,3.61-14.54,15.11-13.91,34.38a4.46,4.46,0,0,0-2.1,4.43c.23,3.27,4.2,8.41,4.2,8.41s2.92,14.59,11.33,20.78c0,0,.06,9.58-.47,12.2h0C283.19,306.33,291.18,306.21,301.28,303.76Z" transform="translate(-3.21 -183.64)"/><path class="cls-27" d="M314.24,257.94c.64-19.27-5.95-30.77-13.9-34.38-3.42-1.55-9.95-2.29-13.7-2.29s-10.28.74-13.7,2.29c-8,3.61-14.54,15.11-13.91,34.38a4.46,4.46,0,0,0-2.1,4.43c.23,3.27,4.2,8.41,4.2,8.41s2.92,14.59,11.33,20.78c0,0,0,3.65-.09,7.06,3.4,1.58,7.72,2.72,14.93,2.72,6,0,11.54-1.65,13.57-3.68-.07-3.1-.05-6.1-.05-6.1,8.4-6.19,11.32-20.78,11.32-20.78s4-5.14,4.21-8.41A4.46,4.46,0,0,0,314.24,257.94Z" transform="translate(-3.21 -183.64)"/><path class="cls-28" d="M314.24,257.94c.64-19.27-5.95-30.77-13.9-34.38-3.42-1.55-9.95-2.29-13.7-2.29s-10.28.74-13.7,2.29c-7.25,3.29-13.36,13.13-13.91,29.44,0,1.59,0,3.23,0,4.94,0,0,.1,3.27.28,5.07s1.82,7.77,1.82,7.77,2.92,14.59,11.33,20.78a23.45,23.45,0,0,0,13.59,4.91c7.7,0,14.77-4.91,14.77-4.91,8.4-6.19,11.32-20.78,11.32-20.78s1.4-5.84,1.58-7.36S314.24,257.94,314.24,257.94Z" transform="translate(-3.21 -183.64)"/><path class="cls-29" d="M385.17,383.8c-1.75-6.48-38.35-52.89-46.06-63.05s-30.65-12.26-30.65-12.26c0-2.28-7.18-4.73-7.18-4.73h0c-10.1,2.45-18.09,2.57-29.29,0h0a32.34,32.34,0,0,0-4.26,1.86c-1.54.85-2.92,1.88-2.92,2.87,0,0-22.94,2.1-30.65,12.26s-44.31,56.57-46.06,63.05,2.14,12.64,8.06,13.31c7.7.87,22.24,2.33,28.2-1.4a46.13,46.13,0,0,0,5.12-4.78c1.41-1.45,3-3.09,4.53-4.76a134.81,134.81,0,0,0,9.14-10.54h0s-.36,4.5-.9,10.75c-.09,1-.18,2.13-.28,3.26s-.2,2.28-.31,3.47c-.68,7.71-1.51,16.4-2.23,22.58-.17,1.43-.33,2.72-.48,3.84a72.46,72.46,0,0,1-2.21,9.52c-.94,3.31-2,6.69-2.69,9.95-1.46,6.5-1.76,12.52,2.1,16.49h0s14.52,9.71,52.35,9.71,48.63-9.71,48.63-9.71h0c4.33-4.47,3.42-11.52,1.5-19-.64-2.47-1.39-5-2.09-7.48a70.89,70.89,0,0,1-2.21-9.52c-.16-1.12-.32-2.41-.49-3.84s-.33-3-.51-4.64c-.12-1.1-.23-2.24-.35-3.41s-.24-2.36-.35-3.57c-.24-2.42-.47-4.91-.69-7.35-.11-1.21-.22-2.42-.33-3.61-.21-2.37-.41-4.65-.59-6.73-.54-6.25-.9-10.75-.9-10.75h0c1.33,2,8.49,10,13.68,15.3a46.13,46.13,0,0,0,5.12,4.78c5.95,3.73,20.49,2.27,28.2,1.4a9.15,9.15,0,0,0,5.61-2.8,10.46,10.46,0,0,0,2.76-5.79A11.76,11.76,0,0,0,385.17,383.8Z" transform="translate(-3.21 -183.64)"/><path class="cls-30" d="M308.46,308.49c0-2.28-7.18-4.73-7.18-4.73-10.1,2.45-18.09,2.57-29.29,0,0,0-7.18,2.45-7.18,4.73,0,0,6.18,2.45,21.94,2.45S308.46,308.49,308.46,308.49Z" transform="translate(-3.21 -183.64)"/><path class="cls-25" d="M291.08,463c48.11-.93,38.3-46.7,36-61.65s18.22-37.36,4.67-61.64-44.36-25.22-44.36-25.22h-1.42s-30.82.93-44.37,25.22,7,46.7,4.67,61.64S234.09,462,282.19,463Z" transform="translate(-3.21 -183.64)"/><path class="cls-11" d="M282.19,454.55c-11-.21-19.1-3.2-23.82-8.87-9.09-10.9-5.79-31.07-4.2-40.77l.37-2.3c1.18-7.58-1.46-15.24-4.26-23.35-4-11.53-8.09-23.46-1.37-35.5,11.09-19.89,37-20.9,37.27-20.91h1c1.65.09,26.55,1.77,37.22,20.91,6.72,12,2.6,24-1.37,35.5-2.8,8.11-5.45,15.77-4.26,23.35l.37,2.3c1.58,9.7,4.89,29.87-4.2,40.77-4.71,5.66-12.76,8.64-23.91,8.87Z" transform="translate(-3.21 -183.64)"/><path class="cls-11" d="M209.35,287.73H357.51A7.48,7.48,0,0,1,365,295.2v3a16.12,16.12,0,0,1-16.12,16.12H218a16.12,16.12,0,0,1-16.12-16.12v-3A7.48,7.48,0,0,1,209.35,287.73Z"/><path class="cls-25" d="M368.19,482.22V477a5.6,5.6,0,0,0-5.6-5.6H210.69a5.6,5.6,0,0,0-5.61,5.6v5.25Z" transform="translate(-3.21 -183.64)"/><rect class="cls-31" x="209.6" y="226.21" width="17.51" height="61.51"/><path class="cls-25" d="M205.9,214.58h24.92a2.83,2.83,0,0,1,2.83,2.83v.71a8.09,8.09,0,0,1-8.09,8.09H211.15a8.09,8.09,0,0,1-8.09-8.09v-.71A2.83,2.83,0,0,1,205.9,214.58Z"/><rect class="cls-31" x="339.74" y="226.21" width="17.51" height="61.51"/><rect class="cls-11" x="209.6" y="226.21" width="17.51" height="9.21"/><rect class="cls-11" x="339.74" y="226.21" width="17.51" height="9.21"/><path class="cls-25" d="M336,214.58H361a2.83,2.83,0,0,1,2.83,2.83v.71a8.09,8.09,0,0,1-8.09,8.09H341.28a8.09,8.09,0,0,1-8.09-8.09v-.71a2.83,2.83,0,0,1,2.83-2.83Z"/><circle class="cls-32" cx="337.72" cy="429.93" r="7.71"/><circle class="cls-32" cx="229.14" cy="429.93" r="7.71"/><path class="cls-11" d="M287.22,591.86c26.27,2.1,50.09,19.61,50.09,19.61h6.3a10.16,10.16,0,0,0,10.16-10.16h0C327.5,578.55,287.92,575,287.92,575h-2.57s-39.58,3.51-65.85,26.27h0a10.16,10.16,0,0,0,10.16,10.16H236s23.81-17.51,50.08-19.61Z" transform="translate(-3.21 -183.64)"/><circle class="cls-32" cx="286.64" cy="625.48" r="7.71" transform="translate(-138.69 -101.49) rotate(-13.22)"/><path class="cls-11" d="M280.73,403.66h5.38a5.36,5.36,0,0,1,5.36,5.36V435.1a7.56,7.56,0,0,1-7.56,7.56h-1a7.56,7.56,0,0,1-7.56-7.56V409a5.36,5.36,0,0,1,5.36-5.36Z"/><rect class="cls-31" x="275.37" y="304.77" width="16.11" height="94.69" rx="7.56" ry="7.56"/><path class="cls-11" d="M294.69,512V496.47a8.06,8.06,0,1,0-16.11,0V512Z" transform="translate(-3.21 -183.64)"/><rect class="cls-31" x="275.25" y="231.82" width="16.06" height="61.51" rx="5.52" ry="5.52"/><path class="cls-28" d="M257,252" transform="translate(-3.21 -183.64)"/><path class="cls-33" d="M254.46,254.89a40.29,40.29,0,0,1,.38-9.56c.76-5,2.75-12,8-17.54,5.56-5.75,13.54-8.66,23.76-8.66v2.1c-9.55,0-17,2.67-22.1,8-9.43,9.77-7.88,25.32-7.86,25.46Z" transform="translate(-3.21 -183.64)"/><path class="cls-34" d="M261.92,275H260.8a1.71,1.71,0,0,1-1.8-1.61V252.55a1.71,1.71,0,0,1,1.8-1.61h1.12a1.71,1.71,0,0,1,1.8,1.61v20.84A1.7,1.7,0,0,1,261.92,275Z" transform="translate(-3.21 -183.64)"/><path class="cls-35" d="M254.46,252.87c-2.31,0-4.18,2.17-4.18,4.82V268.2c0,2.66,1.87,4.82,4.18,4.82H259V252.87Z" transform="translate(-3.21 -183.64)"/><path class="cls-36" d="M248.14,259.11v7.69a2.48,2.48,0,0,0,2.11,2.34V256.78A2.5,2.5,0,0,0,248.14,259.11Z" transform="translate(-3.21 -183.64)"/><path class="cls-37" d="M250.32,268.9a4.43,4.43,0,0,0,4.14,4.12H259V252.87h-2.69c1,1.19,1.57,3.51,1.57,6.35,0,4.21.26,12.51-2.76,12.51C253,271.73,251.32,270.2,250.32,268.9Z" transform="translate(-3.21 -183.64)"/><path class="cls-33" d="M318.82,254.89a40.93,40.93,0,0,0-.38-9.56c-.76-5-2.76-12-8.06-17.54-5.56-5.75-13.54-8.66-23.75-8.66v2.1c9.55,0,17,2.67,22.09,8,9.43,9.77,7.89,25.32,7.87,25.46Z" transform="translate(-3.21 -183.64)"/><path class="cls-36" d="M318.72,240.7A30,30,0,0,0,310.19,226c-5.72-5.28-13.66-8-23.56-8s-17.85,2.68-23.57,8a30.08,30.08,0,0,0-8.53,14.74,1.13,1.13,0,0,0,.9,1.38l2.21.47a1.21,1.21,0,0,0,1.43-.83c3.42-12.83,12.68-19.32,27.53-19.32s24.12,6.49,27.54,19.32a1.2,1.2,0,0,0,1.42.83l2.21-.47A1.12,1.12,0,0,0,318.72,240.7Z" transform="translate(-3.21 -183.64)"/><path class="cls-34" d="M311.36,275h1.11a1.72,1.72,0,0,0,1.81-1.61V252.55a1.72,1.72,0,0,0-1.81-1.61h-1.11a1.72,1.72,0,0,0-1.81,1.61v20.84A1.72,1.72,0,0,0,311.36,275Z" transform="translate(-3.21 -183.64)"/><path class="cls-35" d="M318.82,252.87c2.3,0,4.18,2.17,4.18,4.82V268.2c0,2.66-1.88,4.82-4.18,4.82h-4.54V252.87Z" transform="translate(-3.21 -183.64)"/><path class="cls-36" d="M325.14,259.11v7.69a2.48,2.48,0,0,1-2.12,2.34V256.78A2.5,2.5,0,0,1,325.14,259.11Z" transform="translate(-3.21 -183.64)"/><path class="cls-37" d="M323,268.9a4.43,4.43,0,0,1-4.14,4.12H314.3V252.87H317c-1,1.19-1.57,3.51-1.57,6.35,0,4.21-.26,12.51,2.76,12.51C320.32,271.73,322,270.2,323,268.9Z" transform="translate(-3.21 -183.64)"/><path class="cls-38" d="M81.65,276.91,66.5,315.29l0,.14L70,328.54,85.41,386.1,80,387.53,64.69,330.07l-3.55-13.3-.25-.94a2.74,2.74,0,0,1,.1-1.74l15.49-39.26,5.52-14,5.35-13.57,5.18,2.05-4.79,12.15Z" transform="translate(-3.21 -183.64)"/><polygon class="cls-39" points="84.53 77.84 78.44 93.27 73.27 91.19 78.79 77.21 84.53 77.84"/><path class="cls-39" d="M70,328.54c-1.73.54-4,1.15-5.35,1.53l-3.55-13.3,5.4-1.34Z" transform="translate(-3.21 -183.64)"/><path class="cls-40" d="M110.57,396.18H57.31a10.4,10.4,0,0,1,1.4-5.23,10.67,10.67,0,0,1,1.66-2.17,10.45,10.45,0,0,1,7.4-3.06h32.35a10.43,10.43,0,0,1,10.45,10.46Z" transform="translate(-3.21 -183.64)"/><path class="cls-41" d="M88.38,199.17h6.51a2,2,0,0,1,2,2v.9a0,0,0,0,1,0,0H86.36a0,0,0,0,1,0,0v-.9A2,2,0,0,1,88.38,199.17Z"/><circle class="cls-41" cx="60.13" cy="132.2" r="7.51"/><circle class="cls-42" cx="60.13" cy="132.2" r="3.46"/><path class="cls-38" d="M110.47,261a8.94,8.94,0,0,1,1.26.68,8.09,8.09,0,0,1,1.88,1.66,8.61,8.61,0,0,1-6.17,14.15,8.5,8.5,0,0,1-2.5-.25,9.65,9.65,0,0,1-1.34-.46A8.61,8.61,0,0,1,110.47,261Z" transform="translate(-3.21 -183.64)"/><path class="cls-42" d="M83,250.48H91.4a9.39,9.39,0,0,1,9.39,9.39v8.52a0,0,0,0,1,0,0H73.64a0,0,0,0,1,0,0v-8.52A9.39,9.39,0,0,1,83,250.48Z" transform="translate(-188.67 52.08) rotate(-66.45)"/><path class="cls-41" d="M87.4,254.15h18.78a14.45,14.45,0,0,1,14.45,14.45V275a0,0,0,0,1,0,0H73a0,0,0,0,1,0,0V268.6A14.45,14.45,0,0,1,87.4,254.15Z" transform="translate(-187.65 63.95) rotate(-66.45)"/><rect class="cls-38" x="75.76" y="265.67" width="59.89" height="5.62" rx="1.94" ry="1.94" transform="translate(-185.86 74.45) rotate(-66.45)"/><path class="cls-39" d="M111.73,261.7a8.09,8.09,0,0,1,1.88,1.66l-6.17,14.15a8.5,8.5,0,0,1-2.5-.25Z" transform="translate(-3.21 -183.64)"/><polygon class="cls-43" points="229.13 65.62 174.35 191.31 93.2 112.06 115.84 60.12 229.13 65.62"/><path class="cls-44" d="M110.57,396.18H57.31a10.4,10.4,0,0,1,1.4-5.23h50.47A10.5,10.5,0,0,1,110.57,396.18Z" transform="translate(-3.21 -183.64)"/></svg>