<?xml version="1.0" encoding="utf-8"?>
<!-- Generator: Adobe Illustrator 22.1.0, SVG Export Plug-In . SVG Version: 6.00 Build 0)  -->
<svg version="1.1" id="圖層_1" xmlns="http://www.w3.org/2000/svg" xmlns:xlink="http://www.w3.org/1999/xlink" x="0px" y="0px"
	 viewBox="0 0 300 300" style="enable-background:new 0 0 300 300;" xml:space="preserve">
<style type="text/css">
	.st0{fill:#F95323;}
	.st1{fill:#E64523;}
	.st2{fill:#292929;}
	.st3{fill:#333333;}
	.st4{fill:#91BD40;}
	.st5{fill:#9BD24A;}
</style>
<g>
	<g>
		<path class="st0" d="M149.6,58.6c0,0-47.1-23.3-68.5-16.9c-17.4,5.2-54.6,20.7-69.5,70.5S0.7,217.4,50.3,260.6
			s109.3,35.3,125.1,33.8c29.8-2.8,73.4-24.5,95.3-60.2c17.9-29.1,33.9-61,19.9-114.7c-13.4-51.2-69-84.1-88.4-79.9
			C181.1,44.4,149.6,58.6,149.6,58.6z"/>
		<path class="st1" d="M125.8,260.6C76.2,217.4,72.2,162,87.1,112.1c9.9-33.1,29.6-51,46.9-60.9c-15.7-6.2-38.6-13.6-51.8-9.6
			c-17.4,5.2-54.6,20.7-69.5,70.5S1.7,217.4,51.3,260.6s109.2,34.8,125.1,33.8c2.8-0.2,7-1.1,12-2.6
			C168.4,287.5,146.3,278.4,125.8,260.6z"/>
		<g>
			<g>
				<g>
					<path class="st2" d="M192.3,231.3c-27.9-15.4-63.2-21.2-98.7-13.1c-5.2,1.2-10.4-1-11.4-5.2c0,0,0,0,0,0
						c-1.1-4.3,2.9-9.2,8.8-10.5c39.5-8.6,78.8-2.1,110.3,15.4c4.7,2.6,6,7.8,3.2,11.3c0,0,0,0,0,0
						C201.7,232.7,196.4,233.6,192.3,231.3z"/>
				</g>
				<g>
					<path class="st2" d="M207.9,200.1c-33.5-18.7-76-25.7-118.7-15.8c-5.6,1.3-11.2-1-12.3-5.6c0,0,0,0,0,0
						c-1.2-4.6,3.1-9.9,9.4-11.3c47.1-10.5,94.1-2.7,131.4,18.4c5,2.8,6.4,8.4,3.4,12.2l0,0C218.1,201.7,212.3,202.6,207.9,200.1z"
						/>
				</g>
				<g>
					<path class="st2" d="M223.1,168.8c-39-22-88.7-30.2-138.7-18.5c-6.1,1.4-12.2-1.1-13.4-6.1c-0.1-0.4-0.2-0.7-0.3-1.1
						c-1.2-5,3.4-10.8,10.2-12.3c55-12.5,110-3.3,153.5,21.4c5.4,3.1,6.9,9.2,3.7,13.3c-0.2,0.3-0.5,0.6-0.7,0.9
						C234.1,170.5,227.9,171.5,223.1,168.8z"/>
				</g>
			</g>
			<g>
				<g>
					<path class="st3" d="M234.4,152.2c-43.1-24.5-97.4-33.7-151.8-21.8c-1.3,6.7-2.2,13.5-2.7,20.3c1.5,0.1,3,0,4.5-0.3
						c49.9-11.7,99.6-3.5,138.7,18.5c4.8,2.7,11.1,1.7,14.3-2.4c0.2-0.3,0.5-0.6,0.7-0.9C241.3,161.4,239.8,155.3,234.4,152.2z"/>
				</g>
				<g>
					<path class="st3" d="M217.7,185.8c-37.3-21.1-84.3-28.9-131.4-18.4c-2.6,0.6-4.9,1.8-6.5,3.4c0.3,4.3,0.8,8.5,1.5,12.8
						c2.3,1.1,5.1,1.4,8,0.7c42.7-9.9,85.2-2.9,118.7,15.8c4.4,2.4,10.2,1.6,13.1-2.2C224,194.2,222.7,188.6,217.7,185.8z"/>
				</g>
				<g>
					<path class="st3" d="M201.2,217.9c-31.4-17.5-70.8-24-110.3-15.4c-1.6,0.4-3.1,1-4.4,1.8c1.7,4.7,3.6,9.4,5.9,14.1
						c0.4,0,0.7-0.1,1.1-0.2c35.5-8.1,70.8-2.3,98.7,13.1c4.1,2.2,9.4,1.4,12.2-2.1c0,0,0,0,0,0
						C207.2,225.8,205.9,220.6,201.2,217.9z"/>
				</g>
			</g>
		</g>
	</g>
	<g>
		<polygon class="st4" points="90.1,5 102,37 71.2,80.2 125.8,60.5 149.6,93.3 155.6,49.2 133.8,44.5 149.6,30.4 		"/>
		<polygon class="st5" points="207.2,5 149.6,30.4 133.8,44.5 155.6,49.2 149.6,93.3 174.5,61.4 227.1,80.2 196.3,35.1 		"/>
	</g>
</g>
</svg>
